<svg width="292" height="114" viewBox="0 0 343 114" fill="none" xmlns="http://www.w3.org/2000/svg"><path d="M200.24 55.3C198.823 55.3023 197.998 54.367 197.996 53.1494C197.994 51.9692 198.816 50.9752 200.233 50.9728C201.651 50.9705 202.476 51.962 202.478 53.1421C202.48 54.3597 201.658 55.2977 200.24 55.3Z" fill="#D7D9DC"></path><path d="M200.364 41.6453H200.539V40.8579H200.256L200.075 41.3237L199.893 40.8579H199.61V41.6453H199.786V41.01H199.79L200.023 41.6453H200.127L200.36 41.01H200.364V41.6453Z" fill="#D7D9DC"></path><path d="M199.268 41.01H199.513V40.8579H198.829V41.01H199.074V41.6453H199.268V41.01Z" fill="#D7D9DC"></path><path d="M199.045 49.9301H201.032C201.993 49.9301 202.833 49.2938 203.073 48.3833L205.047 40.8882C205.051 40.873 205.039 40.8579 205.023 40.8579H201.454C201.443 40.8579 201.433 40.8654 201.43 40.8762L199.045 49.9301Z" fill="#D7D9DC"></path><path fill-rule="evenodd" clip-rule="evenodd" d="M189.446 46.459C189.432 46.459 189.421 46.4481 189.421 46.4347V45.3967C189.421 45.3834 189.41 45.3725 189.396 45.3725H185.96C185.946 45.3725 185.935 45.3834 185.935 45.3967V59.0107C185.935 59.024 185.946 59.0349 185.96 59.0349H187.346C188.492 59.0349 189.421 58.1263 189.421 57.0052V54.1282C189.421 54.106 189.449 54.0957 189.465 54.1123C190.213 54.9222 191.358 55.3006 192.467 55.3006C195.378 55.3006 197.39 52.9778 197.39 50.2054C197.39 47.4517 195.359 45.0541 192.429 45.0541C191.284 45.0541 190.101 45.5002 189.467 46.4481C189.462 46.4548 189.454 46.459 189.446 46.459ZM191.547 52.3409C190.13 52.3409 189.306 51.4043 189.306 50.1867C189.306 49.0065 190.13 48.0138 191.547 48.0138C192.965 48.0138 193.789 49.0065 193.789 50.1867C193.789 51.4043 192.965 52.3409 191.547 52.3409Z" fill="#D7D9DC"></path><path fill-rule="evenodd" clip-rule="evenodd" d="M177.34 46.459C177.326 46.459 177.315 46.4481 177.315 46.4347V45.3725H173.829V59.0349H175.24C176.386 59.0349 177.315 58.1263 177.315 57.0052V54.0726C177.315 54.0698 177.319 54.0684 177.321 54.0706C178.068 54.9092 179.234 55.3006 180.361 55.3006C183.272 55.3006 185.284 52.9778 185.284 50.2054C185.284 47.4517 183.253 45.0541 180.323 45.0541C179.178 45.0541 177.995 45.5002 177.361 46.4481C177.356 46.4548 177.348 46.459 177.34 46.459ZM179.441 52.3409C178.024 52.3409 177.2 51.4043 177.2 50.1867C177.2 49.0065 178.024 48.0138 179.441 48.0138C180.859 48.0138 181.683 49.0065 181.683 50.1867C181.683 51.4043 180.859 52.3409 179.441 52.3409Z" fill="#D7D9DC"></path><path fill-rule="evenodd" clip-rule="evenodd" d="M169.301 54.9822H170.687C171.833 54.9822 172.763 54.0734 172.763 52.9524V45.3967C172.763 45.3834 172.752 45.3725 172.738 45.3725H169.301C169.288 45.3725 169.277 45.3834 169.277 45.3967V46.244C169.277 46.2664 169.248 46.2766 169.233 46.2598C168.502 45.4501 167.339 45.0541 166.231 45.0541C163.319 45.0541 161.308 47.4143 161.308 50.1679C161.308 52.9216 163.358 55.3006 166.269 55.3006C167.414 55.3006 168.616 54.8732 169.231 53.9257C169.236 53.9187 169.243 53.9144 169.252 53.9144C169.265 53.9144 169.277 53.9253 169.277 53.9387V54.9579C169.277 54.9713 169.288 54.9822 169.301 54.9822ZM167.15 52.3409C165.733 52.3409 164.909 51.4043 164.909 50.1867C164.909 49.0065 165.733 48.0138 167.15 48.0138C168.568 48.0138 169.392 49.0065 169.392 50.1867C169.392 51.4043 168.568 52.3409 167.15 52.3409Z" fill="#D7D9DC"></path><path d="M153.794 46.6088C153.781 46.6088 153.77 46.598 153.77 46.5845V45.3967C153.77 45.3834 153.759 45.3725 153.745 45.3725H150.308C150.295 45.3725 150.284 45.3834 150.284 45.3967V54.9579C150.284 54.9713 150.295 54.9822 150.308 54.9822H151.694C152.841 54.9822 153.77 54.0736 153.77 52.9525V49.9994C153.77 48.8005 154.172 47.7703 155.589 47.7703C157.188 47.7703 157.172 49.156 157.162 50.0894C157.161 50.1624 157.16 50.2326 157.16 50.2992V54.9579C157.16 54.9713 157.171 54.9822 157.185 54.9822H158.571C159.717 54.9822 160.646 54.0736 160.646 52.9525V49.0441C160.646 46.6838 159.593 45.0541 156.949 45.0541C155.594 45.0541 154.618 45.445 153.815 46.5982C153.811 46.6047 153.803 46.6088 153.794 46.6088Z" fill="#D7D9DC"></path><path d="M146.033 43.6999C146.992 43.9775 148.018 43.5531 148.475 42.6825L149.008 41.6656C149.014 41.6539 149.01 41.6397 148.998 41.6332C147.717 40.9281 145.947 40.4833 144.499 40.4833C141.606 40.4833 139.518 42.3565 139.518 45.2226C139.518 47.9576 141.07 48.557 143.426 49.2127C143.464 49.2233 143.504 49.2343 143.545 49.2456C144.367 49.4727 145.705 49.8422 145.705 50.8236C145.705 51.8165 144.767 52.2473 143.886 52.2473C142.602 52.2473 141.491 51.5916 140.553 50.7862L138.954 53.7267C138.948 53.7376 138.951 53.7512 138.962 53.7582C140.433 54.7623 142.208 55.3568 144.02 55.3568C145.475 55.3568 146.989 54.9635 148.119 54.0268C149.268 53.0714 149.613 51.6292 149.613 50.2241C149.613 47.9388 148.061 46.946 146.05 46.3652L145.092 46.0843L145.085 46.0821C144.434 45.8759 143.426 45.5569 143.426 44.7355C143.426 43.9488 144.345 43.5554 145.035 43.5554C145.375 43.5554 145.71 43.6068 146.033 43.6999Z" fill="#D7D9DC"></path><path fill-rule="evenodd" clip-rule="evenodd" d="M184.416 73.1983V57.6506H180.93V64.5253C180.202 63.6823 179.015 63.2703 177.884 63.2703C174.973 63.2703 172.962 65.6306 172.962 68.3842C172.962 71.1378 175.011 73.5167 177.923 73.5167C179.072 73.5167 180.279 73.0859 180.892 72.1305H180.93V73.1983H184.416ZM178.804 66.2299C180.221 66.2299 181.045 67.2228 181.045 68.4029C181.045 69.6204 180.221 70.5571 178.804 70.5571C177.386 70.5571 176.563 69.6204 176.563 68.4029C176.563 67.2228 177.386 66.2299 178.804 66.2299Z" fill="#D7D9DC"></path><path fill-rule="evenodd" clip-rule="evenodd" d="M166.609 73.5167C169.769 73.5167 172.527 71.6623 172.527 68.4029C172.527 65.1247 169.769 63.2703 166.609 63.2703C163.448 63.2703 160.69 65.1247 160.69 68.4029C160.69 71.681 163.467 73.5167 166.609 73.5167ZM166.609 66.2299C168.026 66.2299 168.85 67.2228 168.85 68.4029C168.85 69.6204 168.026 70.5571 166.609 70.5571C165.191 70.5571 164.368 69.6204 164.368 68.4029C164.368 67.2228 165.191 66.2299 166.609 66.2299Z" fill="#D7D9DC"></path><path fill-rule="evenodd" clip-rule="evenodd" d="M154.354 73.5167C157.514 73.5167 160.272 71.6623 160.272 68.4029C160.272 65.1247 157.514 63.2703 154.354 63.2703C151.193 63.2703 148.435 65.1247 148.435 68.4029C148.435 71.681 151.212 73.5167 154.354 73.5167ZM154.354 66.2299C155.771 66.2299 156.595 67.2228 156.595 68.4029C156.595 69.6204 155.771 70.5571 154.354 70.5571C152.936 70.5571 152.112 69.6204 152.112 68.4029C152.112 67.2228 152.936 66.2299 154.354 66.2299Z" fill="#D7D9DC"></path><path d="M143.822 64.5441V62.1838H148.362V59.0743H140.068V73.1983H143.822V67.6536H147.941V64.5441H143.822Z" fill="#D7D9DC"></path></svg>